<mxfile host="app.diagrams.net" modified="2023-11-27T19:55:32.077Z" agent="Mozilla/5.0 (Windows NT 10.0; Win64; x64) AppleWebKit/537.36 (KHTML, like Gecko) Chrome/119.0.0.0 Safari/537.36" version="22.1.4" etag="7vsvFs1BU31jFYykxJMP" type="github">
  <diagram name="PÃ¡gina-1" id="aXnHx3le7XcombuUKzS9">
    <mxGraphModel>
      <root>
        <mxCell id="0" />
        <mxCell id="1" parent="0" />
      </root>
    </mxGraphModel>
  </diagram>
</mxfile>
